<?xml version="1.0" encoding="utf-8"?>
<!-- Generator: Adobe Illustrator 16.0.0, SVG Export Plug-In . SVG Version: 6.00 Build 0)  -->
<!DOCTYPE svg PUBLIC "-//W3C//DTD SVG 1.1//EN" "http://www.w3.org/Graphics/SVG/1.1/DTD/svg11.dtd">
<svg version="1.1" xmlns="http://www.w3.org/2000/svg" xmlns:xlink="http://www.w3.org/1999/xlink" x="0px" y="0px"
	 width="178.129px" height="50px" viewBox="0 0 178.129 50" enable-background="new 0 0 178.129 50" xml:space="preserve">
<style type="text/css">
	.st0{fill:#6800D8;}
</style>
<g>
	<path class="st0" d="M60.3,28.3c-0.7,0-1.1,0.4-1.7,0.9c-0.8,0.9-2.1,1.6-3.7,1.6c-3.1,0-5.4-2.6-5.4-5.7c0-3.2,2.4-5.7,5.4-5.7
		c0.8,0,1.7,0.2,2.3,0.6l-4.3,5c-0.3,0.3-0.4,0.7-0.4,1.2c0,1,0.8,1.8,1.8,1.8c0.5,0,0.9-0.2,1.3-0.6l5.4-6.4
		c0.4-0.5,0.6-0.9,0.6-1.4c0-0.6-0.3-1.1-0.7-1.5c-1.2-1.1-3.3-2.2-6.1-2.2c-5.3,0-9.3,4.1-9.3,9.3c0,5.2,4,9.3,9.3,9.3
		c3,0,5.4-1.3,6.8-2.9c0.4-0.4,0.6-0.9,0.6-1.3C62.2,29,61.4,28.3,60.3,28.3z"/>
	<path class="st0" d="M74.3,19.6c1,0,1.8-0.8,1.8-1.8c0-1-0.8-1.8-1.8-1.8h-4.1v-2.6c0-1.1-0.8-1.9-1.9-1.9c-1.1,0-1.9,0.8-1.9,1.9
		V16h-1.3c-1,0-1.8,0.8-1.8,1.8c0,1,0.8,1.8,1.8,1.8h1.3V26c0,5.1,3.4,8.3,8,8.3c1,0,1.8-0.8,1.8-1.8c0-1-0.8-1.8-1.8-1.8
		c-2.4,0-4.1-1.6-4.1-4.7v-6.4H74.3z"/>
	<path class="st0" d="M94.7,15.7c-1.1,0-1.9,0.8-1.9,1.9v0.2c-1.5-1.4-3.6-2.2-5.8-2.2c-5.1,0-8.9,4.1-8.9,9.3
		c0,5.2,3.8,9.3,8.9,9.3c2.3,0,4.3-0.8,5.8-2.2v0.2c0,1.1,0.8,2,1.9,2c1.1,0,1.9-0.9,1.9-2V17.6C96.7,16.6,95.8,15.7,94.7,15.7z
		 M92.8,25c0,3.3-2.4,5.7-5.4,5.7c-3,0-5.4-2.5-5.4-5.7c0-3.3,2.4-5.7,5.4-5.7c3,0,5.3,2.4,5.4,5.5V25z"/>
	<path class="st0" d="M110.9,12.6c1,0,1.8-0.8,1.8-1.8S111.9,9,110.9,9c-4.2,0-7.4,2.7-7.9,7h-1.3c-1,0-1.8,0.8-1.8,1.8
		c0,1,0.8,1.8,1.8,1.8h1.3v12.7c0,1.1,0.8,2,1.9,2c1.1,0,1.9-0.9,1.9-2V19.6h4.1c1,0,1.8-0.8,1.8-1.8c0-1-0.8-1.8-1.8-1.8h-4
		C107.3,13.8,108.9,12.6,110.9,12.6z"/>
	<path class="st0" d="M119.9,11c0-1.1-0.8-1.9-1.9-1.9c-1.1,0-1.9,0.8-1.9,1.9v21.4c0,1.1,0.8,2,1.9,2c1.1,0,1.9-0.9,1.9-2V11z"/>
	<path class="st0" d="M139.7,15.7c-0.6,0-1,0.2-1.3,0.6L129,27.5v-9.8c0-1.1-0.8-1.9-1.9-1.9c-1.1,0-1.9,0.8-1.9,1.9v14.4l-5,6
		c-0.3,0.4-0.4,0.7-0.4,1.2c0,1,0.8,1.8,1.9,1.8c0.5,0,0.9-0.2,1.3-0.6l18.2-21.7c0.3-0.4,0.4-0.7,0.4-1.2
		C141.5,16.5,140.7,15.7,139.7,15.7z"/>
	<path class="st0" d="M156.5,28.3c-0.7,0-1.1,0.4-1.7,0.9c-0.8,0.9-2.1,1.6-3.7,1.6c-3.1,0-5.4-2.6-5.4-5.7c0-3.2,2.4-5.7,5.4-5.7
		c0.8,0,1.7,0.2,2.3,0.6l-4.3,5c-0.3,0.3-0.4,0.7-0.4,1.2c0,1,0.8,1.8,1.8,1.8c0.5,0,1-0.2,1.3-0.6l5.4-6.4c0.4-0.5,0.6-0.9,0.6-1.4
		c0-0.6-0.3-1.1-0.7-1.5c-1.2-1.1-3.3-2.2-6.1-2.2c-5.3,0-9.3,4.1-9.3,9.3c0,5.2,4,9.3,9.3,9.3c3,0,5.4-1.3,6.8-2.9
		c0.4-0.4,0.6-0.9,0.6-1.3C158.4,29,157.6,28.3,156.5,28.3z"/>
	<path class="st0" d="M170,15.7c-4.6,0-7.9,3.2-7.9,8.2v8.4c0,1.1,0.8,2,1.9,2c1.1,0,1.9-0.9,1.9-2v-8.4c0-3.1,1.7-4.6,4-4.6
		c1,0,1.8-0.8,1.8-1.8C171.7,16.5,170.9,15.7,170,15.7z"/>
	<path class="st0" d="M39.8,9.1c-0.6,0-1.2,0.2-1.7,0.8l-9.7,11.6V11.1c0-1.2-0.9-2.1-2-2.1c-0.7,0-1.2,0.2-1.7,0.8L6.8,31.1
		c-0.4,0.5-0.5,0.8-0.5,1.3c0,1.1,0.9,1.9,1.9,1.9c0.5,0,1.1-0.2,1.5-0.7l14.4-17.2v15.9c0,1.1,0.9,2.1,2.1,2.1c1.1,0,2-0.9,2-2.1
		v-4.7l9.3-11.1v15.9c0,1.1,0.9,2.1,2.1,2.1c1.1,0,2.1-0.9,2.1-2.1V11.1C41.8,10,40.9,9.1,39.8,9.1z"/>
</g>
</svg>
