<?xml version="1.0" encoding="utf-8"?>
<!-- Generator: Adobe Illustrator 16.0.0, SVG Export Plug-In . SVG Version: 6.00 Build 0)  -->
<!DOCTYPE svg PUBLIC "-//W3C//DTD SVG 1.1//EN" "http://www.w3.org/Graphics/SVG/1.1/DTD/svg11.dtd">
<svg version="1.1" xmlns="http://www.w3.org/2000/svg" xmlns:xlink="http://www.w3.org/1999/xlink" x="0px" y="0px"
	 width="178.129px" height="50px" viewBox="0 0 178.129 50" enable-background="new 0 0 178.129 50" xml:space="preserve">
<style type="text/css">
	.st0{fill:#FFFFFF;}
</style>
<g>
	<path class="st0" d="M60.8,28.8c-0.7,0-1.1,0.4-1.7,0.9c-0.8,0.9-2.1,1.6-3.7,1.6c-3.1,0-5.4-2.6-5.4-5.7c0-3.2,2.4-5.7,5.4-5.7
		c0.8,0,1.7,0.2,2.3,0.6l-4.3,5c-0.3,0.3-0.4,0.7-0.4,1.2c0,1,0.8,1.8,1.8,1.8c0.5,0,0.9-0.2,1.3-0.6l5.4-6.4
		c0.4-0.5,0.6-0.9,0.6-1.4c0-0.6-0.3-1.1-0.7-1.5c-1.2-1.1-3.3-2.2-6.1-2.2c-5.3,0-9.3,4.1-9.3,9.3s4,9.3,9.3,9.3
		c3,0,5.4-1.3,6.8-2.9c0.4-0.4,0.6-0.9,0.6-1.3C62.7,29.5,61.9,28.8,60.8,28.8z"/>
	<path class="st0" d="M74.8,20.1c1,0,1.8-0.8,1.8-1.8s-0.8-1.8-1.8-1.8h-4.1v-2.6c0-1.1-0.8-1.9-1.9-1.9s-1.9,0.8-1.9,1.9v2.6h-1.3
		c-1,0-1.8,0.8-1.8,1.8s0.8,1.8,1.8,1.8h1.3v6.4c0,5.1,3.4,8.3,8,8.3c1,0,1.8-0.8,1.8-1.8s-0.8-1.8-1.8-1.8c-2.4,0-4.1-1.6-4.1-4.7
		v-6.4H74.8z"/>
	<path class="st0" d="M95.2,16.2c-1.1,0-1.9,0.8-1.9,1.9v0.2c-1.5-1.4-3.6-2.2-5.8-2.2c-5.1,0-8.9,4.1-8.9,9.3s3.8,9.3,8.9,9.3
		c2.3,0,4.3-0.8,5.8-2.2v0.2c0,1.1,0.8,2,1.9,2s1.9-0.9,1.9-2V18.1C97.2,17.1,96.3,16.2,95.2,16.2z M93.3,25.5
		c0,3.3-2.4,5.7-5.4,5.7s-5.4-2.5-5.4-5.7c0-3.3,2.4-5.7,5.4-5.7s5.3,2.4,5.4,5.5V25.5z"/>
	<path class="st0" d="M111.4,13.1c1,0,1.8-0.8,1.8-1.8s-0.8-1.8-1.8-1.8c-4.2,0-7.4,2.7-7.9,7h-1.3c-1,0-1.8,0.8-1.8,1.8
		s0.8,1.8,1.8,1.8h1.3v12.7c0,1.1,0.8,2,1.9,2s1.9-0.9,1.9-2V20.1h4.1c1,0,1.8-0.8,1.8-1.8s-0.8-1.8-1.8-1.8h-4
		C107.8,14.3,109.4,13.1,111.4,13.1z"/>
	<path class="st0" d="M120.4,11.5c0-1.1-0.8-1.9-1.9-1.9s-1.9,0.8-1.9,1.9v21.4c0,1.1,0.8,2,1.9,2s1.9-0.9,1.9-2V11.5z"/>
	<path class="st0" d="M140.2,16.2c-0.6,0-1,0.2-1.3,0.6L129.5,28v-9.8c0-1.1-0.8-1.9-1.9-1.9s-1.9,0.8-1.9,1.9v14.4l-5,6
		c-0.3,0.4-0.4,0.7-0.4,1.2c0,1,0.8,1.8,1.9,1.8c0.5,0,0.9-0.2,1.3-0.6l18.2-21.7c0.3-0.4,0.4-0.7,0.4-1.2
		C142,17,141.2,16.2,140.2,16.2z"/>
	<path class="st0" d="M157,28.8c-0.7,0-1.1,0.4-1.7,0.9c-0.8,0.9-2.1,1.6-3.7,1.6c-3.1,0-5.4-2.6-5.4-5.7c0-3.2,2.4-5.7,5.4-5.7
		c0.8,0,1.7,0.2,2.3,0.6l-4.3,5c-0.3,0.3-0.4,0.7-0.4,1.2c0,1,0.8,1.8,1.8,1.8c0.5,0,1-0.2,1.3-0.6l5.4-6.4c0.4-0.5,0.6-0.9,0.6-1.4
		c0-0.6-0.3-1.1-0.7-1.5c-1.2-1.1-3.3-2.2-6.1-2.2c-5.3,0-9.3,4.1-9.3,9.3s4,9.3,9.3,9.3c3,0,5.4-1.3,6.8-2.9
		c0.4-0.4,0.6-0.9,0.6-1.3C158.9,29.5,158.1,28.8,157,28.8z"/>
	<path class="st0" d="M170.5,16.2c-4.6,0-7.9,3.2-7.9,8.2v8.4c0,1.1,0.8,2,1.9,2c1.1,0,1.9-0.9,1.9-2v-8.4c0-3.1,1.7-4.6,4-4.6
		c1,0,1.8-0.8,1.8-1.8S171.4,16.2,170.5,16.2z"/>
	<path class="st0" d="M40.3,9.6c-0.6,0-1.2,0.2-1.7,0.8L28.9,22V11.6c0-1.2-0.9-2.1-2-2.1c-0.7,0-1.2,0.2-1.7,0.8L7.3,31.6
		c-0.4,0.5-0.5,0.8-0.5,1.3c0,1.1,0.9,1.9,1.9,1.9c0.5,0,1.1-0.2,1.5-0.7l14.4-17.2v15.9c0,1.1,0.9,2.1,2.1,2.1c1.1,0,2-0.9,2-2.1
		v-4.7L38,17v15.9c0,1.1,0.9,2.1,2.1,2.1c1.1,0,2.1-0.9,2.1-2.1V11.6C42.3,10.5,41.4,9.6,40.3,9.6z"/>
</g>
</svg>
