<?xml version="1.0" encoding="utf-8"?>
<!-- Generator: Adobe Illustrator 25.2.0, SVG Export Plug-In . SVG Version: 6.00 Build 0)  -->
<svg version="1.1" id="Layer_1" xmlns="http://www.w3.org/2000/svg" xmlns:xlink="http://www.w3.org/1999/xlink" x="0px" y="0px"
	 viewBox="0 0 400 76" style="enable-background:new 0 0 400 76;" xml:space="preserve">
<style type="text/css">
	.st0{fill:#5298C9;}
	.st1{fill:#33566B;}
	.st2{fill:#A3D8FF;}
	.st3{fill:#85C0EB;}
</style>
<g>
	<path class="st0" d="M88.14,53.45c-0.54,0-0.79-0.2-0.79-0.76v-2.83c0-0.51,0.25-0.81,0.79-0.81h3.05V24.51h-3.05
		c-0.54,0-0.79-0.25-0.79-0.76v-2.83c0-0.51,0.25-0.81,0.79-0.81h10.87c0.44,0,0.74,0.3,0.74,0.81v2.83c0,0.5-0.3,0.76-0.74,0.76
		h-3.05v24.55h3.05c0.44,0,0.74,0.3,0.74,0.81v2.83c0,0.56-0.3,0.76-0.74,0.76H88.14z"/>
	<path class="st0" d="M112.99,24.56c-0.44,0-0.89,0.1-1.33,0.25c-0.49,0.2-0.89,0.4-1.23,0.71c-0.39,0.3-0.74,0.71-0.93,1.21
		c-0.2,0.46-0.29,1.06-0.29,1.77v16.62c0,0.71,0.1,1.31,0.29,1.77c0.2,0.5,0.54,0.91,0.93,1.21c0.35,0.3,0.74,0.56,1.23,0.71
		c0.44,0.2,0.89,0.25,1.33,0.25h12.6c0.49,0,0.79,0.3,0.79,0.81v2.83c0,0.56-0.29,0.76-0.79,0.76h-12.6c-1.23,0-2.36-0.15-3.44-0.4
		c-1.03-0.3-1.92-0.76-2.71-1.41c-0.74-0.66-1.38-1.57-1.77-2.63c-0.44-1.01-0.64-2.27-0.64-3.89V28.5c0-2.73,0.74-4.75,2.26-6.21
		c1.48-1.41,3.59-2.12,6.3-2.12h12.15c0.44,0,0.74,0.3,0.74,0.76v2.88c0,0.51-0.29,0.76-0.74,0.76H112.99z"/>
	<path class="st0" d="M153.98,52.7c0,0.56-0.29,0.76-0.74,0.76h-13.58c-1.23,0-2.36-0.15-3.44-0.4c-1.03-0.3-1.92-0.76-2.71-1.41
		c-0.74-0.66-1.38-1.57-1.77-2.63c-0.44-1.01-0.64-2.27-0.64-3.89V28.5c0-2.73,0.74-4.75,2.26-6.21c1.48-1.41,3.59-2.12,6.3-2.12
		h13.09c0.49,0,0.79,0.3,0.79,0.76v2.88c0,0.51-0.3,0.76-0.79,0.76h-13.09c-0.44,0-0.89,0.1-1.33,0.25c-0.49,0.2-0.89,0.4-1.23,0.71
		c-0.39,0.3-0.74,0.71-0.93,1.21c-0.2,0.46-0.3,1.06-0.3,1.77v5.35h15.94c0.44,0,0.74,0.3,0.74,0.81v2.83c0,0.55-0.3,0.81-0.74,0.81
		h-15.94v6.82c0,0.71,0.1,1.31,0.3,1.77c0.2,0.5,0.54,0.91,0.93,1.21c0.34,0.3,0.74,0.56,1.23,0.71c0.44,0.2,0.89,0.25,1.33,0.25
		h13.58c0.44,0,0.74,0.3,0.74,0.81V52.7z"/>
	<g>
		<g>
			<g>
				<g>
					<polygon class="st1" points="47.05,29.76 32.47,21.35 17.9,29.76 32.47,38.17 					"/>
				</g>
				<g>
					<polygon class="st1" points="17.9,29.76 17.9,46.58 32.47,55 32.47,38.17 					"/>
				</g>
				<g>
					<polygon class="st1" points="47.05,29.76 32.47,38.17 32.47,55 47.05,46.58 					"/>
				</g>
				<g>
					<polygon class="st1" points="17.9,8.45 17.9,25.27 32.47,33.69 32.47,16.86 					"/>
				</g>
				<g>
					<polygon class="st1" points="47.05,8.45 32.47,16.86 32.47,33.69 47.05,25.27 					"/>
				</g>
				<g>
					<polygon class="st1" points="64.94,40.23 50.37,31.82 35.8,40.23 50.37,48.65 					"/>
				</g>
				<g>
					<polygon class="st1" points="35.8,40.23 35.8,57.06 50.37,65.47 50.37,48.65 					"/>
				</g>
				<g>
					<polygon class="st1" points="35.8,18.92 35.8,35.75 50.37,44.16 50.37,27.33 					"/>
				</g>
				<g>
					<polygon class="st1" points="29.14,40.25 14.57,31.84 0,40.25 14.57,48.67 					"/>
				</g>
				<g>
					<polygon class="st1" points="29.14,40.25 14.57,48.67 14.57,65.49 29.14,57.08 					"/>
				</g>
				<g>
					<polygon class="st1" points="29.14,18.92 14.57,27.33 14.57,44.16 29.14,35.75 					"/>
				</g>
				<g>
					<polygon class="st1" points="47.04,50.73 32.47,42.31 17.9,50.73 32.47,59.14 					"/>
				</g>
			</g>
		</g>
		<g>
			<g>
				<g>
					<polygon class="st0" points="0,40.25 0,57.08 14.57,65.49 14.57,48.67 					"/>
				</g>
				<g>
					<polygon class="st0" points="0,18.94 0,35.77 14.57,44.18 14.57,27.35 					"/>
				</g>
				<g>
					<polygon class="st0" points="17.9,50.73 17.9,67.55 32.47,75.96 32.47,59.14 					"/>
				</g>
				<g>
					<polygon class="st0" points="17.9,29.41 17.9,46.24 32.47,54.65 32.47,37.83 					"/>
				</g>
				<g>
					<polygon class="st0" points="22.72,48.94 22.72,53.7 26.84,56.07 26.84,51.32 					"/>
				</g>
				<g>
					<polygon class="st0" points="14.1,54.65 14.1,59.41 18.22,61.79 18.22,57.03 					"/>
				</g>
				<g>
					<polygon class="st0" points="5.07,38.47 5.07,43.22 9.19,45.6 9.19,40.84 					"/>
				</g>
				<g>
					<polygon class="st0" points="14.1,33.69 14.1,38.44 18.22,40.82 18.22,36.06 					"/>
				</g>
			</g>
		</g>
		<g>
			<g>
				<g>
					<polygon class="st2" points="64.94,40.23 50.37,48.65 50.37,65.47 64.94,57.06 					"/>
				</g>
				<g>
					<polygon class="st2" points="64.94,18.92 50.37,27.33 50.37,44.16 64.94,35.75 					"/>
				</g>
				<g>
					<polygon class="st2" points="47.04,50.73 32.47,59.14 32.47,75.96 47.04,67.55 					"/>
				</g>
				<g>
					<polygon class="st2" points="47.04,29.41 32.47,37.83 32.47,54.65 47.04,46.24 					"/>
				</g>
				<g>
					<polygon class="st2" points="42.23,48.94 42.23,53.7 38.11,56.07 38.11,51.32 					"/>
				</g>
				<g>
					<polygon class="st2" points="50.85,54.65 50.85,59.41 46.73,61.79 46.73,57.03 					"/>
				</g>
				<g>
					<polygon class="st2" points="50.85,33.69 50.85,38.44 46.73,40.82 46.73,36.06 					"/>
				</g>
				<g>
					<polygon class="st2" points="59.88,38.47 59.88,43.22 55.76,45.6 55.76,40.84 					"/>
				</g>
			</g>
		</g>
		<g>
			<g>
				<g>
					<polygon class="st3" points="47.05,8.45 32.47,0.04 17.9,8.45 32.47,16.86 					"/>
				</g>
				<g>
					<polygon class="st3" points="64.94,18.92 50.37,10.51 35.8,18.92 50.37,27.33 					"/>
				</g>
				<g>
					<polygon class="st3" points="29.14,18.94 14.57,10.53 0,18.94 14.57,27.35 					"/>
				</g>
				<g>
					<polygon class="st3" points="47.04,29.41 32.47,21 17.9,29.41 32.47,37.83 					"/>
				</g>
				<g>
					<polygon class="st3" points="27.14,13.57 23.27,11.34 19.4,13.57 23.27,15.8 					"/>
				</g>
				<g>
					<polygon class="st3" points="27.14,24.35 23.27,22.12 19.4,24.35 23.27,26.58 					"/>
				</g>
				<g>
					<polygon class="st3" points="37.56,13.57 41.42,11.34 45.29,13.57 41.42,15.8 					"/>
				</g>
				<g>
					<polygon class="st3" points="37.56,24.35 41.42,22.12 45.29,24.35 41.42,26.58 					"/>
				</g>
			</g>
		</g>
	</g>
	<g>
		<path class="st1" d="M186.77,20.2c1.75,0,3.26,0.3,4.46,0.85c1.15,0.6,2.1,1.25,2.85,2.05c0.7,0.85,1.2,1.7,1.5,2.6
			c0.3,0.9,0.45,1.7,0.45,2.3v17.63c0,1.3-0.25,2.4-0.7,3.36c-0.5,1-1.15,1.85-1.9,2.5c-0.8,0.6-1.65,1.1-2.65,1.45
			c-1,0.3-2.05,0.5-3.05,0.5h-15.17c-0.7,0-1.25-0.25-1.7-0.65c-0.5-0.45-0.7-0.95-0.7-1.55V22.4c0-0.6,0.25-1.15,0.75-1.55
			c0.45-0.4,1-0.6,1.65-0.65H186.77z M191.18,28.01c-0.1-0.6-0.3-1.2-0.6-1.7c-0.3-0.4-0.7-0.8-1.3-1.2c-0.6-0.3-1.45-0.5-2.5-0.5
			H175v24.44h12.72c0.3,0,0.7-0.05,1.1-0.15s0.75-0.25,1.15-0.55c0.3-0.2,0.6-0.55,0.85-1.05c0.2-0.4,0.35-0.95,0.35-1.65V28.01z"/>
		<path class="st1" d="M216.06,27.51c1.15,0,2.25,0.2,3.26,0.5c1,0.35,1.85,0.85,2.65,1.5c0.7,0.7,1.3,1.5,1.75,2.45
			c0.4,1,0.65,2.1,0.65,3.41c0,5.46-3.1,8.21-9.26,8.31h-9.82v1.95c0,1,0.25,1.8,0.85,2.4c0.55,0.7,1.6,1,3.11,1h12.87
			c0.5,0,0.8,0.3,0.8,0.8v2.8c0,0.5-0.3,0.8-0.8,0.8h-12.87c-3,0-5.21-0.7-6.61-2.05c-1.5-1.4-2.2-3.3-2.2-5.76V35.37
			c0-2.45,0.7-4.41,2.2-5.81c1.4-1.35,3.61-2.05,6.61-2.05H216.06z M209.25,31.92c-1.5,0-2.55,0.35-3.11,0.95
			c-0.6,0.7-0.85,1.5-0.85,2.5v3.91h9.82c1.6,0,2.7-0.3,3.41-0.95c0.65-0.6,1-1.6,1-2.95c0-0.65-0.1-1.2-0.3-1.7
			c-0.2-0.4-0.45-0.75-0.75-1.05c-0.35-0.25-0.7-0.45-1.1-0.55c-0.45-0.1-0.9-0.15-1.3-0.15H209.25z"/>
		<path class="st1" d="M243.91,41.68c0.2-1.5,0.45-3.05,0.7-4.66c0.2-1.6,0.4-3.1,0.6-4.51c0.2-1.6,0.4-3.15,0.65-4.71
			c0-0.2,0.1-0.35,0.3-0.55c0.15-0.1,0.35-0.15,0.55-0.15l3.26,0.4c0.2,0.05,0.4,0.15,0.6,0.3c0.1,0.2,0.15,0.4,0.15,0.6
			c-0.25,1.5-0.5,3.05-0.7,4.66c-0.2,1.4-0.4,2.85-0.6,4.46c-0.25,1.6-0.45,3.16-0.65,4.66c-0.2,1.2-0.4,2.45-0.65,3.76
			c-0.3,1.35-0.8,2.55-1.4,3.66c-0.65,1.1-1.5,2-2.6,2.75c-1.1,0.7-2.6,1.1-4.41,1.1h-1.95c-1.8,0-3.25-0.4-4.36-1.1
			c-1.15-0.75-2.05-1.65-2.65-2.75c-0.65-1.1-1.1-2.3-1.35-3.66c-0.3-1.3-0.55-2.55-0.7-3.76c-0.2-1.5-0.45-3.05-0.65-4.66
			c-0.25-1.6-0.45-3.05-0.65-4.46c-0.25-1.6-0.45-3.15-0.65-4.66c-0.05-0.2,0-0.4,0.2-0.6c0.1-0.15,0.3-0.25,0.55-0.3l3.26-0.4
			c0.2,0,0.35,0.05,0.55,0.15c0.15,0.2,0.25,0.35,0.3,0.55c0.2,1.55,0.4,3.1,0.65,4.71c0.15,1.4,0.35,2.9,0.6,4.51
			c0.2,1.6,0.45,3.15,0.7,4.66c0.35,2.6,0.8,4.46,1.4,5.61c0.55,1.2,1.5,1.75,2.8,1.75h1.95c1.3,0,2.2-0.55,2.8-1.75
			C243.06,46.14,243.51,44.29,243.91,41.68z"/>
		<path class="st1" d="M262.84,24.61c-0.5,0-0.95,0.1-1.4,0.2c-0.5,0.2-0.9,0.4-1.25,0.7c-0.4,0.35-0.7,0.75-0.9,1.25
			c-0.25,0.5-0.35,1.1-0.35,1.75v16.63c0,0.7,0.1,1.25,0.35,1.75c0.2,0.5,0.5,0.9,0.9,1.2c0.35,0.35,0.75,0.6,1.25,0.7
			c0.45,0.2,0.9,0.25,1.4,0.25h12.92c0.5,0,0.8,0.3,0.8,0.8v2.8c0,0.5-0.3,0.8-0.8,0.8h-12.92c-1.3,0-2.45-0.15-3.51-0.45
			c-1.1-0.3-2-0.8-2.75-1.4c-0.8-0.65-1.4-1.5-1.8-2.6c-0.5-1-0.7-2.3-0.7-3.86V28.51c0-2.7,0.75-4.76,2.3-6.21
			c1.5-1.4,3.66-2.1,6.46-2.1h12.42c0.2,0,0.4,0.1,0.6,0.2c0.1,0.2,0.2,0.35,0.2,0.55v2.85c0,0.55-0.3,0.8-0.8,0.8H262.84z"/>
		<path class="st1" d="M296.09,27.51c1.15,0,2.25,0.2,3.26,0.5c1,0.35,1.85,0.85,2.65,1.5c0.7,0.7,1.3,1.5,1.75,2.45
			c0.4,1,0.65,2.1,0.65,3.41c0,5.46-3.1,8.21-9.26,8.31h-9.82v1.95c0,1,0.25,1.8,0.85,2.4c0.55,0.7,1.6,1,3.11,1h12.87
			c0.5,0,0.8,0.3,0.8,0.8v2.8c0,0.5-0.3,0.8-0.8,0.8h-12.87c-3,0-5.21-0.7-6.61-2.05c-1.5-1.4-2.2-3.3-2.2-5.76V35.37
			c0-2.45,0.7-4.41,2.2-5.81c1.4-1.35,3.61-2.05,6.61-2.05H296.09z M289.28,31.92c-1.5,0-2.55,0.35-3.11,0.95
			c-0.6,0.7-0.85,1.5-0.85,2.5v3.91h9.82c1.6,0,2.7-0.3,3.41-0.95c0.65-0.6,1-1.6,1-2.95c0-0.65-0.1-1.2-0.3-1.7
			c-0.2-0.4-0.45-0.75-0.75-1.05c-0.35-0.25-0.7-0.45-1.1-0.55c-0.45-0.1-0.9-0.15-1.3-0.15H289.28z"/>
		<path class="st1" d="M312.61,52.65c0,0.5-0.25,0.8-0.75,0.8h-3.36c-0.2,0-0.4-0.1-0.5-0.2c-0.2-0.2-0.25-0.4-0.25-0.6V29.97
			c0-0.6,0.25-1.15,0.75-1.7c0.45-0.5,1-0.75,1.7-0.75h12.72c2.9,0,5.11,0.8,6.61,2.3c1.4,1.6,2.15,3.61,2.15,6.01v16.83
			c0,0.5-0.25,0.8-0.75,0.8h-3.36c-0.2,0-0.4-0.1-0.5-0.2c-0.2-0.2-0.25-0.4-0.25-0.6V35.83c0-0.5-0.1-0.95-0.2-1.45
			c-0.15-0.45-0.35-0.85-0.65-1.25c-0.3-0.35-0.7-0.65-1.2-0.9c-0.5-0.2-1.15-0.3-1.85-0.3h-10.32V52.65z"/>
		<path class="st1" d="M351.72,52.65c0,0.5-0.3,0.8-0.8,0.8h-4.16c-1.6,0-2.95-0.3-4.06-0.8c-1.1-0.55-2-1.25-2.65-2.05
			c-0.7-0.8-1.2-1.65-1.5-2.6c-0.35-0.9-0.5-1.8-0.5-2.6V31.92h-3.66c-0.2,0-0.4-0.05-0.5-0.25c-0.2-0.1-0.25-0.3-0.25-0.5v-2.85
			c0-0.2,0.05-0.4,0.25-0.6c0.1-0.1,0.3-0.2,0.5-0.2h3.66V20c0-0.5,0.25-0.8,0.75-0.8h3.36c0.2,0,0.35,0.1,0.55,0.2
			c0.1,0.2,0.2,0.4,0.2,0.6v7.51h6.56c0.5,0,0.8,0.3,0.8,0.8v2.85c0,0.2-0.1,0.4-0.2,0.5c-0.2,0.2-0.4,0.25-0.6,0.25h-6.56v13.47
			c0,0,0,0.2,0.1,0.55c0,0.4,0.15,0.85,0.4,1.25c0.2,0.5,0.6,0.9,1.15,1.25c0.5,0.4,1.2,0.6,2.2,0.6h4.16c0.5,0,0.8,0.3,0.8,0.8
			V52.65z"/>
		<path class="st1" d="M370.25,27.51c1.15,0,2.25,0.2,3.26,0.5c1,0.35,1.85,0.85,2.65,1.5c0.7,0.7,1.3,1.5,1.75,2.45
			c0.4,1,0.65,2.1,0.65,3.41c0,5.46-3.1,8.21-9.26,8.31h-9.82v1.95c0,1,0.25,1.8,0.85,2.4c0.55,0.7,1.6,1,3.11,1h12.87
			c0.5,0,0.8,0.3,0.8,0.8v2.8c0,0.5-0.3,0.8-0.8,0.8h-12.87c-3,0-5.21-0.7-6.61-2.05c-1.5-1.4-2.2-3.3-2.2-5.76V35.37
			c0-2.45,0.7-4.41,2.2-5.81c1.4-1.35,3.61-2.05,6.61-2.05H370.25z M363.44,31.92c-1.5,0-2.55,0.35-3.11,0.95
			c-0.6,0.7-0.85,1.5-0.85,2.5v3.91h9.82c1.6,0,2.7-0.3,3.41-0.95c0.65-0.6,1-1.6,1-2.95c0-0.65-0.1-1.2-0.3-1.7
			c-0.2-0.4-0.45-0.75-0.75-1.05c-0.35-0.25-0.7-0.45-1.1-0.55c-0.45-0.1-0.9-0.15-1.3-0.15H363.44z"/>
		<path class="st1" d="M397.55,27.51c0.7,0,1.25,0.25,1.75,0.65c0.45,0.5,0.7,1.05,0.7,1.65v4.26c0,0.25-0.1,0.45-0.2,0.55
			c-0.2,0.2-0.35,0.25-0.55,0.25h-3.36c-0.55,0-0.8-0.25-0.8-0.8v-2.15h-4.36c-0.75,0-1.35,0.1-1.85,0.3c-0.5,0.25-0.9,0.55-1.2,0.9
			c-0.35,0.4-0.6,0.8-0.7,1.25c-0.15,0.5-0.2,0.95-0.2,1.45v16.83c0,0.5-0.25,0.8-0.75,0.8h-3.36c-0.2,0-0.4-0.1-0.5-0.2
			c-0.2-0.2-0.25-0.4-0.25-0.6V35.83c0-2.4,0.7-4.41,2.2-6.01c1.4-1.5,3.61-2.3,6.61-2.3H397.55z"/>
	</g>
</g>
</svg>
