<?xml version="1.0" encoding="utf-8"?>
<!-- Generator: Adobe Illustrator 25.2.1, SVG Export Plug-In . SVG Version: 6.00 Build 0)  -->
<svg version="1.1" id="Layer_1" xmlns="http://www.w3.org/2000/svg" xmlns:xlink="http://www.w3.org/1999/xlink" x="0px" y="0px"
	 viewBox="0 0 873.3 136.4" style="enable-background:new 0 0 873.3 136.4;" xml:space="preserve">
<style type="text/css">
	.st0{fill:url(#SVGID_1_);}
	.st1{fill:url(#SVGID_2_);}
	.st2{fill:url(#SVGID_3_);}
	.st3{fill:url(#SVGID_4_);}
	.st4{fill:url(#SVGID_5_);}
	.st5{fill:url(#SVGID_6_);}
	.st6{fill:url(#SVGID_7_);}
	.st7{fill:url(#SVGID_8_);}
	.st8{fill:url(#SVGID_9_);}
	.st9{fill:url(#SVGID_10_);}
	.st10{fill:url(#SVGID_11_);}
	.st11{fill:#567B96;}
</style>
<g>
	<g>
		
			<linearGradient id="SVGID_1_" gradientUnits="userSpaceOnUse" x1="-46.7768" y1="52.8105" x2="84.7587" y2="184.3459" gradientTransform="matrix(1 0 0 -1 0 138.252)">
			<stop  offset="0" style="stop-color:#567B96"/>
			<stop  offset="0.8364" style="stop-color:#B3D1ED"/>
		</linearGradient>
		<rect y="1.9" class="st0" width="36.7" height="36.7"/>
		
			<linearGradient id="SVGID_2_" gradientUnits="userSpaceOnUse" x1="-22.9461" y1="28.9802" x2="108.5895" y2="160.5158" gradientTransform="matrix(1 0 0 -1 0 138.252)">
			<stop  offset="0" style="stop-color:#567B96"/>
			<stop  offset="0.8364" style="stop-color:#B3D1ED"/>
		</linearGradient>
		<rect x="47.7" y="1.9" class="st1" width="36.7" height="36.7"/>
		
			<linearGradient id="SVGID_3_" gradientUnits="userSpaceOnUse" x1="48.57" y1="-42.5353" x2="180.1054" y2="89.0002" gradientTransform="matrix(1 0 0 -1 0 138.252)">
			<stop  offset="0" style="stop-color:#567B96"/>
			<stop  offset="0.8364" style="stop-color:#B3D1ED"/>
		</linearGradient>
		<rect x="95.3" y="97.3" class="st2" width="36.7" height="36.7"/>
		<g>
			
				<linearGradient id="SVGID_4_" gradientUnits="userSpaceOnUse" x1="24.7345" y1="-18.7001" x2="156.2698" y2="112.8354" gradientTransform="matrix(1 0 0 -1 0 138.252)">
				<stop  offset="0" style="stop-color:#567B96"/>
				<stop  offset="0.8364" style="stop-color:#B3D1ED"/>
			</linearGradient>
			<rect x="47.7" y="97.3" class="st3" width="36.7" height="36.7"/>
			
				<linearGradient id="SVGID_5_" gradientUnits="userSpaceOnUse" x1="0.9039" y1="5.1304" x2="132.4392" y2="136.6657" gradientTransform="matrix(1 0 0 -1 0 138.252)">
				<stop  offset="0" style="stop-color:#567B96"/>
				<stop  offset="0.8364" style="stop-color:#B3D1ED"/>
			</linearGradient>
			<rect y="97.3" class="st4" width="36.7" height="36.7"/>
		</g>
		
			<linearGradient id="SVGID_6_" gradientUnits="userSpaceOnUse" x1="-22.9362" y1="28.9707" x2="108.5984" y2="160.5054" gradientTransform="matrix(1 0 0 -1 0 138.252)">
			<stop  offset="0" style="stop-color:#567B96"/>
			<stop  offset="0.8364" style="stop-color:#B3D1ED"/>
		</linearGradient>
		<rect y="49.6" class="st5" width="36.7" height="36.7"/>
		
			<linearGradient id="SVGID_7_" gradientUnits="userSpaceOnUse" x1="0.8946" y1="5.1404" x2="132.4293" y2="136.6752" gradientTransform="matrix(1 0 0 -1 0 138.252)">
			<stop  offset="0" style="stop-color:#567B96"/>
			<stop  offset="0.8364" style="stop-color:#B3D1ED"/>
		</linearGradient>
		<rect x="47.7" y="49.6" class="st6" width="36.7" height="36.7"/>
		<g>
			
				<linearGradient id="SVGID_8_" gradientUnits="userSpaceOnUse" x1="0.8891" y1="5.1446" x2="132.4246" y2="136.6802" gradientTransform="matrix(1 0 0 -1 0 138.252)">
				<stop  offset="0" style="stop-color:#567B96"/>
				<stop  offset="0.8364" style="stop-color:#B3D1ED"/>
			</linearGradient>
			<rect x="95.3" y="1.9" class="st7" width="36.7" height="36.7"/>
			
				<linearGradient id="SVGID_9_" gradientUnits="userSpaceOnUse" x1="24.7299" y1="-18.695" x2="156.2646" y2="112.8398" gradientTransform="matrix(1 0 0 -1 0 138.252)">
				<stop  offset="0" style="stop-color:#567B96"/>
				<stop  offset="0.8364" style="stop-color:#B3D1ED"/>
			</linearGradient>
			<rect x="95.3" y="49.6" class="st8" width="36.7" height="36.7"/>
		</g>
		<g>
			
				<linearGradient id="SVGID_10_" gradientUnits="userSpaceOnUse" x1="12.819" y1="-6.785" x2="144.3545" y2="124.7506" gradientTransform="matrix(1 0 0 -1 0 138.252)">
				<stop  offset="0" style="stop-color:#567B96"/>
				<stop  offset="0.8364" style="stop-color:#B3D1ED"/>
			</linearGradient>
			<path class="st9" d="M36.7,127c0-3,2.5-5.5,5.5-5.5s5.5,2.5,5.5,5.5h2.5v-22.7h-2.5c0,3-2.5,5.5-5.5,5.5s-5.5-2.5-5.5-5.5h-2.5
				V127H36.7z"/>
		</g>
		<g>
			
				<linearGradient id="SVGID_11_" gradientUnits="userSpaceOnUse" x1="-11.0237" y1="17.0576" x2="120.512" y2="148.5932" gradientTransform="matrix(1 0 0 -1 0 138.252)">
				<stop  offset="0" style="stop-color:#567B96"/>
				<stop  offset="0.8364" style="stop-color:#B3D1ED"/>
			</linearGradient>
			<path class="st10" d="M7,86.3c3,0,5.5,2.5,5.5,5.5c0,3-2.5,5.5-5.5,5.5v2.5h22.7v-2.5c-3,0-5.5-2.5-5.5-5.5c0-3,2.5-5.5,5.5-5.5
				v-2.5H7V86.3z"/>
		</g>
	</g>
	<g>
		<g>
			<path class="st11" d="M155.1,60.1V3h10.6v57.2H155.1z"/>
			<path class="st11" d="M173,36.1V27h21.4v9.1H173z"/>
			<path class="st11" d="M231.6,61.2c-16.8,0-30.1-13.1-30.1-29.6c0-16.7,13.2-29.7,30.2-29.7c16.3,0,29.4,13.2,29.4,29.6
				C261.1,48.2,248.3,61.2,231.6,61.2z M231.5,12.2c-11,0-19.3,8.4-19.3,19.4c0,10.8,8.5,19.4,19.3,19.4c10.8,0,18.9-8.3,18.9-19.3
				S242.2,12.2,231.5,12.2z"/>
			<path class="st11" d="M301.6,60.1l-23.9-41.6v41.6h-10.6V3h12.1l23.7,41.6V3h10.6v57.2H301.6z"/>
		</g>
		<g>
			<path class="st11" d="M177.8,134.4c-3.6,0-6.9-0.7-9.9-2c-3-1.3-5.6-3.1-7.9-5.4c-2.2-2.3-4-5-5.2-8.1c-1.3-3.1-1.9-6.4-1.9-10
				v-0.1c0-3.5,0.6-6.8,1.9-9.9c1.2-3.1,3-5.8,5.2-8.2c2.2-2.3,4.9-4.2,7.9-5.5c3.1-1.3,6.4-2,10.1-2c2.3,0,4.3,0.2,6.1,0.6
				c1.8,0.4,3.5,0.9,5.1,1.6c1.6,0.7,3,1.5,4.3,2.5c1.3,1,2.6,2,3.8,3.2l-3.8,4.1c-2.1-2-4.4-3.6-6.8-4.9c-2.4-1.3-5.3-1.9-8.7-1.9
				c-2.7,0-5.3,0.5-7.6,1.6c-2.3,1-4.4,2.5-6.1,4.3c-1.7,1.8-3.1,4-4,6.5c-1,2.5-1.4,5.1-1.4,8v0.1c0,2.9,0.5,5.6,1.4,8
				c1,2.5,2.3,4.6,4,6.5c1.7,1.8,3.8,3.3,6.1,4.4c2.3,1.1,4.9,1.6,7.6,1.6c3.4,0,6.3-0.6,8.8-1.9c2.5-1.3,4.9-3,7.2-5.3l3.7,3.6
				c-1.3,1.3-2.6,2.5-4,3.6c-1.4,1.1-2.9,2-4.5,2.7c-1.6,0.8-3.3,1.3-5.2,1.8C182.1,134.2,180.1,134.4,177.8,134.4z"/>
			<path class="st11" d="M230.4,134.4c-3.8,0-7.2-0.7-10.3-2.1c-3.1-1.4-5.7-3.2-8-5.6c-2.2-2.3-3.9-5.1-5.1-8.1
				c-1.2-3.1-1.8-6.3-1.8-9.7v-0.1c0-3.4,0.6-6.7,1.8-9.8c1.2-3.1,3-5.8,5.2-8.2c2.2-2.3,4.9-4.2,8-5.6c3.1-1.4,6.6-2.1,10.3-2.1
				c3.8,0,7.2,0.7,10.3,2c3.1,1.4,5.7,3.2,8,5.6c2.2,2.3,3.9,5.1,5.1,8.1c1.2,3.1,1.8,6.3,1.8,9.7c0,0,0,0.1,0,0.1
				c0,3.4-0.6,6.7-1.8,9.8c-1.2,3.1-3,5.8-5.2,8.2c-2.2,2.3-4.9,4.2-8,5.6C237.7,133.7,234.2,134.4,230.4,134.4z M230.6,129.2
				c2.8,0,5.4-0.5,7.8-1.6c2.4-1.1,4.4-2.5,6.1-4.4c1.7-1.8,3-4,4-6.4c1-2.5,1.4-5.1,1.4-7.9v-0.1c0-2.8-0.5-5.5-1.4-8
				c-1-2.5-2.3-4.6-4.1-6.5c-1.7-1.8-3.8-3.3-6.2-4.4c-2.4-1.1-5-1.6-7.8-1.6s-5.4,0.5-7.8,1.6c-2.4,1.1-4.4,2.5-6.1,4.4
				c-1.7,1.8-3,4-4,6.4c-1,2.5-1.4,5.1-1.4,7.9v0.1c0,2.8,0.5,5.5,1.4,8s2.3,4.6,4.1,6.5c1.7,1.8,3.8,3.3,6.2,4.4
				C225.1,128.7,227.7,129.2,230.6,129.2z"/>
			<path class="st11" d="M267.6,84h5.7l18.1,27.1L309.4,84h5.7v49.6h-5.6V93.4L291.4,120h-0.3l-18.1-26.5v40.1h-5.5L267.6,84
				L267.6,84z"/>
			<path class="st11" d="M329.1,84h5.7l18.1,27.1l18-27.1h5.7v49.6h-5.6V93.4L352.9,120h-0.3l-18.1-26.5v40.1h-5.4V84z"/>
			<path class="st11" d="M410.4,134.3c-3.1,0-5.9-0.5-8.4-1.4c-2.5-0.9-4.7-2.3-6.5-4.1c-1.8-1.8-3.2-4.1-4.2-6.8
				c-1-2.7-1.5-5.8-1.5-9.3V84h5.6v28.5c0,5.4,1.3,9.5,4,12.4c2.7,2.9,6.4,4.3,11.2,4.3c4.6,0,8.2-1.4,10.9-4.1
				c2.7-2.7,4-6.8,4-12.3V84h5.6v28.4c0,3.6-0.5,6.8-1.5,9.6c-1,2.7-2.4,5-4.2,6.9c-1.8,1.8-4,3.2-6.5,4.1
				C416.3,133.9,413.5,134.3,410.4,134.3z"/>
			<path class="st11" d="M444.3,84h5.2l31.2,39.7V84h5.5v49.6h-4.5l-32-40.6v40.7h-5.5L444.3,84L444.3,84z"/>
			<path class="st11" d="M500.8,84h5.6v49.6h-5.6V84z"/>
			<path class="st11" d="M543.5,134.4c-3.6,0-6.9-0.7-9.9-2c-3-1.3-5.6-3.1-7.9-5.4c-2.2-2.3-4-5-5.2-8.1c-1.2-3.1-1.9-6.4-1.9-10
				v-0.1c0-3.5,0.6-6.8,1.9-9.9c1.2-3.1,3-5.8,5.2-8.2c2.2-2.3,4.9-4.2,7.9-5.5c3.1-1.3,6.4-2,10.1-2c2.3,0,4.3,0.2,6.1,0.6
				c1.8,0.4,3.5,0.9,5.1,1.6c1.6,0.7,3,1.5,4.3,2.5c1.3,1,2.6,2,3.8,3.2l-3.8,4.1c-2.1-2-4.4-3.6-6.8-4.9c-2.4-1.3-5.3-1.9-8.7-1.9
				c-2.8,0-5.3,0.5-7.6,1.6c-2.3,1-4.4,2.5-6.1,4.3c-1.7,1.8-3.1,4-4,6.5c-1,2.5-1.5,5.1-1.5,8v0.1c0,2.9,0.5,5.6,1.5,8
				c1,2.5,2.3,4.6,4,6.5c1.7,1.8,3.7,3.3,6.1,4.4c2.3,1.1,4.9,1.6,7.6,1.6c3.4,0,6.3-0.6,8.8-1.9c2.5-1.3,4.9-3,7.2-5.3l3.7,3.6
				c-1.3,1.3-2.6,2.5-4,3.6c-1.4,1.1-2.9,2-4.5,2.7c-1.6,0.8-3.3,1.3-5.2,1.8C547.8,134.2,545.8,134.4,543.5,134.4z"/>
			<path class="st11" d="M591.5,83.6h5.2l22.6,49.9h-6l-5.8-13.1h-27l-5.9,13.1h-5.7L591.5,83.6z M605.3,115.4L594,90.2l-11.3,25.3
				H605.3z"/>
			<path class="st11" d="M642.2,89.2h-16.6V84h38.9v5.2h-16.6v44.4h-5.6V89.2z"/>
			<path class="st11" d="M675.5,84h5.6v49.6h-5.6V84z"/>
			<path class="st11" d="M718.6,134.4c-3.8,0-7.2-0.7-10.3-2.1c-3.1-1.4-5.7-3.2-8-5.6c-2.2-2.3-3.9-5.1-5.1-8.1
				c-1.2-3.1-1.8-6.3-1.8-9.7v-0.1c0-3.4,0.6-6.7,1.9-9.8c1.2-3.1,2.9-5.8,5.2-8.2c2.2-2.3,4.9-4.2,8-5.6c3.1-1.4,6.6-2.1,10.3-2.1
				c3.8,0,7.2,0.7,10.3,2c3.1,1.4,5.8,3.2,8,5.6c2.2,2.3,3.9,5.1,5.1,8.1c1.2,3.1,1.8,6.3,1.8,9.7c0,0,0,0.1,0,0.1
				c0,3.4-0.6,6.7-1.8,9.8c-1.2,3.1-2.9,5.8-5.2,8.2s-4.9,4.2-8,5.6C725.8,133.7,722.4,134.4,718.6,134.4z M718.7,129.2
				c2.8,0,5.4-0.5,7.8-1.6c2.4-1.1,4.4-2.5,6.1-4.4c1.7-1.8,3-4,4-6.4c1-2.5,1.4-5.1,1.4-7.9v-0.1c0-2.8-0.5-5.5-1.4-8
				c-1-2.5-2.3-4.6-4.1-6.5c-1.7-1.8-3.8-3.3-6.2-4.4c-2.4-1.1-5-1.6-7.8-1.6c-2.8,0-5.4,0.5-7.8,1.6c-2.4,1.1-4.4,2.5-6.1,4.4
				c-1.7,1.8-3,4-4,6.4c-1,2.5-1.4,5.1-1.4,7.9v0.1c0,2.8,0.5,5.5,1.4,8c1,2.5,2.3,4.6,4.1,6.5c1.8,1.8,3.8,3.3,6.2,4.4
				C713.3,128.7,715.9,129.2,718.7,129.2z"/>
			<path class="st11" d="M755.8,84h5.3l31.2,39.7V84h5.5v49.6h-4.5l-32-40.7v40.7h-5.5L755.8,84L755.8,84z"/>
			<path class="st11" d="M828.8,134.3c-4,0-7.6-0.6-10.9-1.9c-3.3-1.3-6.4-3.3-9.4-6l3.5-4.1c2.6,2.4,5.2,4.1,7.9,5.3
				c2.6,1.2,5.7,1.7,9.1,1.7c3.4,0,6-0.8,8-2.4c2-1.6,3-3.6,3-6.1v-0.1c0-1.1-0.2-2.2-0.6-3.1c-0.4-0.9-1.1-1.8-2-2.5
				c-0.9-0.8-2.3-1.4-3.9-2c-1.7-0.6-3.8-1.2-6.4-1.8c-2.8-0.6-5.3-1.3-7.4-2.1c-2.1-0.8-3.8-1.8-5.2-2.9c-1.4-1.1-2.4-2.5-3.1-4
				c-0.6-1.5-1-3.3-1-5.3v-0.1c0-1.9,0.4-3.7,1.2-5.4c0.8-1.7,1.9-3.1,3.4-4.3c1.5-1.2,3.2-2.1,5.2-2.8c2-0.7,4.2-1,6.5-1
				c3.6,0,6.8,0.5,9.5,1.5c2.7,1,5.3,2.5,7.9,4.6l-3.3,4.3c-2.3-1.9-4.6-3.3-7-4.1c-2.3-0.8-4.8-1.3-7.3-1.3c-3.3,0-5.8,0.8-7.7,2.3
				c-1.9,1.5-2.8,3.4-2.8,5.7v0.1c0,1.2,0.2,2.2,0.6,3.2c0.4,0.9,1.1,1.8,2.1,2.6c1,0.8,2.4,1.5,4.1,2.1s4,1.2,6.7,1.8
				c5.5,1.2,9.6,2.9,12.2,5.1c2.6,2.2,3.9,5.1,3.9,8.9v0.1c0,2.1-0.4,4-1.3,5.8c-0.8,1.7-2,3.2-3.5,4.4c-1.5,1.2-3.3,2.2-5.3,2.8
				C833.5,133.9,831.2,134.3,828.8,134.3z"/>
		</g>
	</g>
</g>
</svg>
